<svg xmlns="http://www.w3.org/2000/svg" xmlns:xlink="http://www.w3.org/1999/xlink" width="200" zoomAndPan="magnify" viewBox="0 0 150 112.499997" height="150" preserveAspectRatio="xMidYMid meet" version="1.0"><defs><g/><clipPath id="eecfdaa38b"><path d="M 0.332031 0 L 149.667969 0 L 149.667969 112.003906 L 0.332031 112.003906 Z M 0.332031 0 " clip-rule="nonzero"/></clipPath><clipPath id="14b9d7f19c"><path d="M 46 25 L 110.761719 25 L 110.761719 55.703125 L 46 55.703125 Z M 46 25 " clip-rule="nonzero"/></clipPath><clipPath id="3538e13834"><path d="M 71 45 L 85 45 L 85 55.703125 L 71 55.703125 Z M 71 45 " clip-rule="nonzero"/></clipPath><clipPath id="58090f5a07"><path d="M 54 18.371094 L 67 18.371094 L 67 29 L 54 29 Z M 54 18.371094 " clip-rule="nonzero"/></clipPath><clipPath id="951091562b"><path d="M 39.082031 30 L 52 30 L 52 41 L 39.082031 41 Z M 39.082031 30 " clip-rule="nonzero"/></clipPath></defs><g clip-path="url(#eecfdaa38b)"><path fill="#ffffff" d="M 0.332031 0 L 149.667969 0 L 149.667969 119.46875 L 0.332031 119.46875 Z M 0.332031 0 " fill-opacity="1" fill-rule="nonzero"/><path fill="#ffffff" d="M 0.332031 0 L 149.667969 0 L 149.667969 112.003906 L 0.332031 112.003906 Z M 0.332031 0 " fill-opacity="1" fill-rule="nonzero"/><path fill="#ffffff" d="M 0.332031 0 L 149.667969 0 L 149.667969 112.003906 L 0.332031 112.003906 Z M 0.332031 0 " fill-opacity="1" fill-rule="nonzero"/></g><g clip-path="url(#14b9d7f19c)"><path fill="#292b2e" d="M 95.144531 49.105469 C 95.425781 48.085938 95.28125 47.171875 94.6875 46.382812 C 94.097656 45.589844 93.292969 45.191406 92.277344 45.191406 L 84.402344 45.191406 L 84.046875 45.207031 L 85.113281 41.234375 L 85.496094 41.21875 L 92.59375 41.21875 C 93.085938 41.21875 93.601562 41.113281 94.125 40.902344 C 94.636719 40.679688 95.125 40.398438 95.582031 40.039062 C 96.039062 39.675781 96.441406 39.265625 96.789062 38.796875 C 97.136719 38.328125 97.386719 37.835938 97.527344 37.3125 L 98.605469 33.320312 C 98.714844 32.835938 98.714844 32.367188 98.625 31.894531 C 98.523438 31.425781 98.34375 31 98.085938 30.632812 C 97.828125 30.265625 97.488281 29.972656 97.089844 29.753906 C 96.691406 29.523438 96.230469 29.40625 95.738281 29.40625 L 81.894531 29.40625 C 81.273438 29.40625 80.738281 29.550781 80.1875 29.867188 L 79.203125 30.441406 C 78.394531 30.910156 77.859375 31.613281 77.617188 32.527344 L 75.027344 42.242188 L 65.703125 42.242188 C 65.078125 42.242188 64.542969 42.382812 63.996094 42.699219 L 63.011719 43.273438 C 62.199219 43.742188 61.664062 44.445312 61.425781 45.359375 L 58.828125 55.074219 L 46.054688 55.074219 L 49.476562 42.246094 L 58.800781 42.246094 C 59.425781 42.246094 59.964844 42.101562 60.507812 41.785156 L 61.492188 41.210938 C 62.304688 40.742188 62.832031 40.046875 63.078125 39.136719 L 65.671875 29.417969 L 74.996094 29.417969 C 75.617188 29.417969 76.15625 29.273438 76.695312 28.957031 L 77.691406 28.382812 C 78.5 27.914062 79.035156 27.214844 79.277344 26.308594 L 79.496094 25.5 L 104.59375 25.5 C 106.65625 25.5 108.269531 26.304688 109.4375 27.902344 C 110.597656 29.5 110.910156 31.304688 110.367188 33.320312 L 109.667969 36.097656 C 108.808594 39.171875 106.792969 41.480469 103.601562 43.003906 C 104.839844 43.6875 105.761719 44.683594 106.371094 46 C 106.972656 47.308594 107.058594 48.761719 106.605469 50.332031 L 105.207031 55.714844 L 93.378906 55.714844 L 95.148438 49.121094 Z M 78.449219 29.40625 L 78.441406 29.40625 Z M 78.449219 29.40625 " fill-opacity="1" fill-rule="evenodd"/></g><g clip-path="url(#3538e13834)"><path fill="#2fbdf5" d="M 74.234375 45.207031 L 84.050781 45.207031 L 81.417969 55.0625 L 71.601562 55.0625 Z M 74.234375 45.207031 " fill-opacity="1" fill-rule="evenodd"/></g><g clip-path="url(#58090f5a07)"><path fill="#2fbdf5" d="M 56.90625 18.371094 L 66.726562 18.371094 L 64.097656 28.226562 L 54.28125 28.226562 Z M 56.90625 18.371094 " fill-opacity="1" fill-rule="evenodd"/></g><g clip-path="url(#951091562b)"><path fill="#2fbdf5" d="M 41.851562 30.832031 L 51.667969 30.832031 L 49.035156 40.6875 L 39.21875 40.6875 Z M 41.851562 30.832031 " fill-opacity="1" fill-rule="evenodd"/></g><g fill="#2fbdf5" fill-opacity="1"><g transform="translate(8.442468, 73.907143)"><g><path d="M 15.21875 -8.3125 L 14.53125 -8.3125 L 14.53125 -2.21875 L 15.21875 -2.21875 L 15.21875 0 L 10.09375 0 L 10.09375 -2.21875 L 10.75 -2.21875 L 10.75 -6.96875 L 8.4375 0 L 6.4375 0 L 4.0625 -6.890625 L 4.0625 -2.21875 L 4.71875 -2.21875 L 4.71875 0 L 0.265625 0 L 0.265625 -2.21875 L 0.953125 -2.21875 L 0.953125 -8.3125 L 0.265625 -8.3125 L 0.265625 -10.546875 L 6.46875 -10.546875 L 7.890625 -6.3125 L 9.234375 -10.546875 L 15.21875 -10.546875 Z M 15.21875 -8.3125 "/></g></g></g><g fill="#2fbdf5" fill-opacity="1"><g transform="translate(24.565351, 73.907143)"><g><path d="M 5.359375 0.1875 C 3.710938 0.1875 2.4375 -0.242188 1.53125 -1.109375 C 0.632812 -1.972656 0.1875 -3.359375 0.1875 -5.265625 C 0.1875 -7.171875 0.632812 -8.554688 1.53125 -9.421875 C 2.4375 -10.296875 3.710938 -10.734375 5.359375 -10.734375 C 7.015625 -10.734375 8.289062 -10.296875 9.1875 -9.421875 C 10.09375 -8.554688 10.546875 -7.171875 10.546875 -5.265625 C 10.546875 -3.359375 10.09375 -1.972656 9.1875 -1.109375 C 8.289062 -0.242188 7.015625 0.1875 5.359375 0.1875 Z M 5.359375 -2.21875 C 5.671875 -2.21875 5.898438 -2.296875 6.046875 -2.453125 C 6.203125 -2.617188 6.28125 -2.875 6.28125 -3.21875 L 6.28125 -7.3125 C 6.28125 -7.65625 6.203125 -7.90625 6.046875 -8.0625 C 5.898438 -8.226562 5.671875 -8.3125 5.359375 -8.3125 C 5.054688 -8.3125 4.828125 -8.226562 4.671875 -8.0625 C 4.515625 -7.90625 4.4375 -7.65625 4.4375 -7.3125 L 4.4375 -3.21875 C 4.4375 -2.875 4.515625 -2.617188 4.671875 -2.453125 C 4.828125 -2.296875 5.054688 -2.21875 5.359375 -2.21875 Z M 5.359375 -2.21875 "/></g></g></g><g fill="#2fbdf5" fill-opacity="1"><g transform="translate(35.932737, 73.907143)"><g><path d="M 8.078125 -10.546875 L 12.515625 -10.546875 L 12.515625 -8.3125 L 11.84375 -8.3125 L 11.84375 0 L 8.03125 0 L 4.0625 -6.109375 L 4.0625 -2.21875 L 4.71875 -2.21875 L 4.71875 0 L 0.265625 0 L 0.265625 -2.21875 L 0.953125 -2.21875 L 0.953125 -8.3125 L 0.265625 -8.3125 L 0.265625 -10.546875 L 5.15625 -10.546875 L 8.71875 -5.109375 L 8.71875 -8.3125 L 8.078125 -8.3125 Z M 8.078125 -10.546875 "/></g></g></g><g fill="#2fbdf5" fill-opacity="1"><g transform="translate(49.332389, 73.907143)"><g><path d="M 0.265625 0 L 0.265625 -2.21875 L 0.953125 -2.21875 L 0.953125 -8.3125 L 0.265625 -8.3125 L 0.265625 -10.546875 L 9.421875 -10.546875 L 9.421875 -6.453125 L 6.375 -6.453125 L 6.375 -8.3125 L 4.734375 -8.3125 L 4.734375 -6.171875 L 5.9375 -6.171875 L 5.9375 -4.640625 L 4.734375 -4.640625 L 4.734375 -2.21875 L 6.375 -2.21875 L 6.375 -4.359375 L 9.421875 -4.359375 L 9.421875 0 Z M 0.265625 0 "/></g></g></g><g fill="#2fbdf5" fill-opacity="1"><g transform="translate(59.62945, 73.907143)"><g><path d="M 6.1875 -10.546875 L 10.34375 -10.546875 L 10.34375 -8.3125 L 9.8125 -8.3125 L 7.1875 -3.625 L 7.1875 -2.21875 L 7.875 -2.21875 L 7.875 0 L 2.71875 0 L 2.71875 -2.21875 L 3.40625 -2.21875 L 3.40625 -3.625 L 0.703125 -8.3125 L 0.15625 -8.3125 L 0.15625 -10.546875 L 5.40625 -10.546875 L 5.40625 -8.3125 L 4.9375 -8.3125 L 5.734375 -6.21875 L 5.859375 -6.21875 L 6.671875 -8.3125 L 6.1875 -8.3125 Z M 6.1875 -10.546875 "/></g></g></g><g fill="#2fbdf5" fill-opacity="1"><g transform="translate(70.780063, 73.907143)"><g/></g></g><g fill="#2fbdf5" fill-opacity="1"><g transform="translate(75.481629, 73.907143)"><g><path d="M 0.265625 -2.21875 L 0.953125 -2.21875 L 0.953125 -8.3125 L 0.265625 -8.3125 L 0.265625 -10.546875 L 6.484375 -10.546875 C 7.648438 -10.546875 8.539062 -10.304688 9.15625 -9.828125 C 9.769531 -9.347656 10.078125 -8.566406 10.078125 -7.484375 C 10.078125 -6.878906 9.953125 -6.351562 9.703125 -5.90625 C 9.460938 -5.46875 9.117188 -5.164062 8.671875 -5 L 8.6875 -4.859375 C 9.550781 -4.722656 9.984375 -4.191406 9.984375 -3.265625 L 9.984375 -2.21875 L 10.625 -2.21875 L 10.625 0 L 6.328125 0 L 6.328125 -3.1875 C 6.328125 -3.539062 6.273438 -3.804688 6.171875 -3.984375 C 6.066406 -4.160156 5.898438 -4.28125 5.671875 -4.34375 C 5.453125 -4.40625 5.140625 -4.4375 4.734375 -4.4375 L 4.734375 -2.21875 L 5.640625 -2.21875 L 5.640625 0 L 0.265625 0 Z M 5.46875 -6.09375 C 5.726562 -6.09375 5.925781 -6.160156 6.0625 -6.296875 C 6.195312 -6.441406 6.265625 -6.664062 6.265625 -6.96875 L 6.265625 -7.453125 C 6.265625 -7.742188 6.195312 -7.957031 6.0625 -8.09375 C 5.925781 -8.238281 5.726562 -8.3125 5.46875 -8.3125 L 4.734375 -8.3125 L 4.734375 -6.09375 Z M 5.46875 -6.09375 "/></g></g></g><g fill="#2fbdf5" fill-opacity="1"><g transform="translate(86.957402, 73.907143)"><g><path d="M 5.359375 0.1875 C 3.710938 0.1875 2.4375 -0.242188 1.53125 -1.109375 C 0.632812 -1.972656 0.1875 -3.359375 0.1875 -5.265625 C 0.1875 -7.171875 0.632812 -8.554688 1.53125 -9.421875 C 2.4375 -10.296875 3.710938 -10.734375 5.359375 -10.734375 C 7.015625 -10.734375 8.289062 -10.296875 9.1875 -9.421875 C 10.09375 -8.554688 10.546875 -7.171875 10.546875 -5.265625 C 10.546875 -3.359375 10.09375 -1.972656 9.1875 -1.109375 C 8.289062 -0.242188 7.015625 0.1875 5.359375 0.1875 Z M 5.359375 -2.21875 C 5.671875 -2.21875 5.898438 -2.296875 6.046875 -2.453125 C 6.203125 -2.617188 6.28125 -2.875 6.28125 -3.21875 L 6.28125 -7.3125 C 6.28125 -7.65625 6.203125 -7.90625 6.046875 -8.0625 C 5.898438 -8.226562 5.671875 -8.3125 5.359375 -8.3125 C 5.054688 -8.3125 4.828125 -8.226562 4.671875 -8.0625 C 4.515625 -7.90625 4.4375 -7.65625 4.4375 -7.3125 L 4.4375 -3.21875 C 4.4375 -2.875 4.515625 -2.617188 4.671875 -2.453125 C 4.828125 -2.296875 5.054688 -2.21875 5.359375 -2.21875 Z M 5.359375 -2.21875 "/></g></g></g><g fill="#2fbdf5" fill-opacity="1"><g transform="translate(98.324787, 73.907143)"><g><path d="M 5.53125 0.1875 C 3.820312 0.1875 2.503906 -0.242188 1.578125 -1.109375 C 0.648438 -1.972656 0.1875 -3.359375 0.1875 -5.265625 C 0.1875 -8.910156 1.957031 -10.734375 5.5 -10.734375 C 6.351562 -10.734375 7.148438 -10.628906 7.890625 -10.421875 C 8.628906 -10.210938 9.175781 -9.984375 9.53125 -9.734375 L 9.53125 -6.34375 L 6.28125 -6.34375 L 6.28125 -7.3125 C 6.28125 -7.65625 6.203125 -7.90625 6.046875 -8.0625 C 5.898438 -8.226562 5.671875 -8.3125 5.359375 -8.3125 C 5.054688 -8.3125 4.828125 -8.226562 4.671875 -8.0625 C 4.515625 -7.90625 4.4375 -7.65625 4.4375 -7.3125 L 4.4375 -3.21875 C 4.4375 -2.875 4.515625 -2.617188 4.671875 -2.453125 C 4.828125 -2.296875 5.054688 -2.21875 5.359375 -2.21875 C 5.671875 -2.21875 5.898438 -2.296875 6.046875 -2.453125 C 6.203125 -2.617188 6.28125 -2.875 6.28125 -3.21875 L 6.28125 -4.328125 L 9.53125 -4.328125 L 9.53125 -0.8125 C 9.164062 -0.5625 8.617188 -0.332031 7.890625 -0.125 C 7.160156 0.0820312 6.375 0.1875 5.53125 0.1875 Z M 5.53125 0.1875 "/></g></g></g><g fill="#2fbdf5" fill-opacity="1"><g transform="translate(108.74379, 73.907143)"><g><path d="M 10.421875 -2.21875 L 11.09375 -2.21875 L 11.09375 0 L 7.390625 0 L 5.359375 -4.203125 L 4.734375 -3.6875 L 4.734375 -2.21875 L 5.390625 -2.21875 L 5.390625 0 L 0.265625 0 L 0.265625 -2.21875 L 0.953125 -2.21875 L 0.953125 -8.3125 L 0.265625 -8.3125 L 0.265625 -10.546875 L 5.390625 -10.546875 L 5.390625 -8.3125 L 4.734375 -8.3125 L 4.734375 -6.53125 L 6.84375 -8.3125 L 5.984375 -8.3125 L 5.984375 -10.546875 L 11.03125 -10.546875 L 11.03125 -8.3125 L 10.34375 -8.3125 L 8.09375 -6.453125 Z M 10.421875 -2.21875 "/></g></g></g><g fill="#2fbdf5" fill-opacity="1"><g transform="translate(120.693765, 73.907143)"><g><path d="M 0.265625 0 L 0.265625 -2.21875 L 0.953125 -2.21875 L 0.953125 -8.3125 L 0.265625 -8.3125 L 0.265625 -10.546875 L 9.421875 -10.546875 L 9.421875 -6.453125 L 6.375 -6.453125 L 6.375 -8.3125 L 4.734375 -8.3125 L 4.734375 -6.171875 L 5.9375 -6.171875 L 5.9375 -4.640625 L 4.734375 -4.640625 L 4.734375 -2.21875 L 6.375 -2.21875 L 6.375 -4.359375 L 9.421875 -4.359375 L 9.421875 0 Z M 0.265625 0 "/></g></g></g><g fill="#2fbdf5" fill-opacity="1"><g transform="translate(130.990826, 73.907143)"><g><path d="M 10.375 -7.265625 L 8.046875 -7.265625 L 8.046875 -8.3125 L 7.1875 -8.3125 L 7.1875 -2.21875 L 8.125 -2.21875 L 8.125 0 L 2.4375 0 L 2.4375 -2.21875 L 3.390625 -2.21875 L 3.390625 -8.3125 L 2.515625 -8.3125 L 2.515625 -7.265625 L 0.1875 -7.265625 L 0.1875 -10.546875 L 10.375 -10.546875 Z M 10.375 -7.265625 "/></g></g></g><g fill="#292b2e" fill-opacity="1"><g transform="translate(41.398168, 90.868278)"><g><path d="M 6.203125 0 C 6.085938 0 6 -0.0625 5.9375 -0.1875 L 4.234375 -3.9375 C 4.210938 -3.988281 4.179688 -4.015625 4.140625 -4.015625 L 2.875 -4.015625 C 2.820312 -4.015625 2.796875 -3.984375 2.796875 -3.921875 L 2.796875 -0.234375 C 2.796875 -0.078125 2.71875 0 2.5625 0 L 1.078125 0 C 0.921875 0 0.84375 -0.078125 0.84375 -0.234375 L 0.84375 -9.453125 C 0.84375 -9.609375 0.921875 -9.6875 1.078125 -9.6875 L 4.96875 -9.6875 C 5.550781 -9.6875 6.066406 -9.5625 6.515625 -9.3125 C 6.960938 -9.070312 7.304688 -8.734375 7.546875 -8.296875 C 7.796875 -7.859375 7.921875 -7.351562 7.921875 -6.78125 C 7.921875 -6.144531 7.765625 -5.601562 7.453125 -5.15625 C 7.140625 -4.707031 6.707031 -4.390625 6.15625 -4.203125 C 6.125 -4.191406 6.101562 -4.175781 6.09375 -4.15625 C 6.082031 -4.132812 6.085938 -4.113281 6.109375 -4.09375 L 7.9375 -0.28125 C 7.96875 -0.238281 7.984375 -0.195312 7.984375 -0.15625 C 7.984375 -0.101562 7.960938 -0.0625 7.921875 -0.03125 C 7.890625 -0.0078125 7.835938 0 7.765625 0 Z M 2.875 -8 C 2.820312 -8 2.796875 -7.972656 2.796875 -7.921875 L 2.796875 -5.59375 C 2.796875 -5.539062 2.820312 -5.515625 2.875 -5.515625 L 4.671875 -5.515625 C 5.054688 -5.515625 5.367188 -5.625 5.609375 -5.84375 C 5.859375 -6.070312 5.984375 -6.375 5.984375 -6.75 C 5.984375 -7.113281 5.859375 -7.410156 5.609375 -7.640625 C 5.367188 -7.878906 5.054688 -8 4.671875 -8 Z M 2.875 -8 "/></g></g></g><g fill="#292b2e" fill-opacity="1"><g transform="translate(53.867231, 90.868278)"><g><path d="M 7.0625 0 C 6.9375 0 6.847656 -0.0625 6.796875 -0.1875 L 6.421875 -1.484375 C 6.410156 -1.523438 6.378906 -1.546875 6.328125 -1.546875 L 2.953125 -1.546875 C 2.898438 -1.546875 2.867188 -1.523438 2.859375 -1.484375 L 2.46875 -0.1875 C 2.425781 -0.0625 2.34375 0 2.21875 0 L 0.609375 0 C 0.523438 0 0.460938 -0.0234375 0.421875 -0.078125 C 0.390625 -0.128906 0.390625 -0.191406 0.421875 -0.265625 L 3.359375 -9.484375 C 3.398438 -9.609375 3.488281 -9.671875 3.625 -9.671875 L 5.65625 -9.671875 C 5.78125 -9.671875 5.867188 -9.609375 5.921875 -9.484375 L 8.859375 -0.265625 C 8.867188 -0.242188 8.875 -0.21875 8.875 -0.1875 C 8.875 -0.125 8.851562 -0.078125 8.8125 -0.046875 C 8.78125 -0.015625 8.734375 0 8.671875 0 Z M 3.34375 -3.15625 C 3.332031 -3.09375 3.359375 -3.0625 3.421875 -3.0625 L 5.859375 -3.0625 C 5.921875 -3.0625 5.945312 -3.09375 5.9375 -3.15625 L 4.6875 -7.375 C 4.675781 -7.40625 4.660156 -7.421875 4.640625 -7.421875 C 4.617188 -7.421875 4.597656 -7.40625 4.578125 -7.375 Z M 3.34375 -3.15625 "/></g></g></g><g fill="#292b2e" fill-opacity="1"><g transform="translate(67.12425, 90.868278)"><g><path d="M 4.25 0.109375 C 3.53125 0.109375 2.894531 -0.03125 2.34375 -0.3125 C 1.800781 -0.59375 1.382812 -0.984375 1.09375 -1.484375 C 0.800781 -1.992188 0.65625 -2.582031 0.65625 -3.25 L 0.65625 -6.4375 C 0.65625 -7.101562 0.800781 -7.6875 1.09375 -8.1875 C 1.382812 -8.695312 1.800781 -9.09375 2.34375 -9.375 C 2.894531 -9.65625 3.53125 -9.796875 4.25 -9.796875 C 4.957031 -9.796875 5.578125 -9.660156 6.109375 -9.390625 C 6.648438 -9.128906 7.070312 -8.753906 7.375 -8.265625 C 7.675781 -7.785156 7.828125 -7.226562 7.828125 -6.59375 C 7.828125 -6.507812 7.753906 -6.457031 7.609375 -6.4375 L 6.125 -6.34375 L 6.078125 -6.34375 C 5.941406 -6.34375 5.875 -6.367188 5.875 -6.421875 L 5.875 -6.5 C 5.875 -6.988281 5.722656 -7.378906 5.421875 -7.671875 C 5.128906 -7.960938 4.738281 -8.109375 4.25 -8.109375 C 3.75 -8.109375 3.347656 -7.960938 3.046875 -7.671875 C 2.742188 -7.378906 2.59375 -6.988281 2.59375 -6.5 L 2.59375 -3.171875 C 2.59375 -2.691406 2.742188 -2.300781 3.046875 -2 C 3.347656 -1.707031 3.75 -1.5625 4.25 -1.5625 C 4.738281 -1.5625 5.128906 -1.707031 5.421875 -2 C 5.722656 -2.300781 5.875 -2.691406 5.875 -3.171875 C 5.875 -3.210938 5.894531 -3.25 5.9375 -3.28125 C 5.976562 -3.3125 6.035156 -3.320312 6.109375 -3.3125 L 7.59375 -3.25 C 7.75 -3.226562 7.828125 -3.207031 7.828125 -3.1875 L 7.828125 -3.109375 C 7.828125 -2.472656 7.675781 -1.910156 7.375 -1.421875 C 7.070312 -0.929688 6.648438 -0.550781 6.109375 -0.28125 C 5.578125 -0.0195312 4.957031 0.109375 4.25 0.109375 Z M 4.25 0.109375 "/></g></g></g><g fill="#292b2e" fill-opacity="1"><g transform="translate(79.510366, 90.868278)"><g><path d="M 1.078125 0 C 0.921875 0 0.84375 -0.078125 0.84375 -0.234375 L 0.84375 -9.4375 C 0.84375 -9.59375 0.921875 -9.671875 1.078125 -9.671875 L 2.5625 -9.671875 C 2.71875 -9.671875 2.796875 -9.59375 2.796875 -9.4375 L 2.796875 -0.234375 C 2.796875 -0.078125 2.71875 0 2.5625 0 Z M 1.078125 0 "/></g></g></g><g fill="#292b2e" fill-opacity="1"><g transform="translate(87.127278, 90.868278)"><g><path d="M 1.078125 0 C 0.921875 0 0.84375 -0.078125 0.84375 -0.234375 L 0.84375 -9.4375 C 0.84375 -9.59375 0.921875 -9.671875 1.078125 -9.671875 L 2.5 -9.671875 C 2.625 -9.671875 2.71875 -9.625 2.78125 -9.53125 L 6.234375 -3.78125 C 6.253906 -3.738281 6.273438 -3.722656 6.296875 -3.734375 C 6.316406 -3.742188 6.328125 -3.765625 6.328125 -3.796875 L 6.328125 -9.4375 C 6.328125 -9.59375 6.40625 -9.671875 6.5625 -9.671875 L 8.015625 -9.671875 C 8.171875 -9.671875 8.25 -9.59375 8.25 -9.4375 L 8.25 -0.234375 C 8.25 -0.078125 8.171875 0 8.015625 0 L 6.609375 0 C 6.492188 0 6.398438 -0.0546875 6.328125 -0.171875 L 2.859375 -5.96875 C 2.835938 -6.007812 2.816406 -6.023438 2.796875 -6.015625 C 2.773438 -6.003906 2.765625 -5.984375 2.765625 -5.953125 L 2.78125 -0.234375 C 2.78125 -0.078125 2.703125 0 2.546875 0 Z M 1.078125 0 "/></g></g></g><g fill="#292b2e" fill-opacity="1"><g transform="translate(100.204588, 90.868278)"><g><path d="M 4.25 0.109375 C 3.539062 0.109375 2.910156 -0.03125 2.359375 -0.3125 C 1.816406 -0.601562 1.394531 -1.003906 1.09375 -1.515625 C 0.800781 -2.023438 0.65625 -2.617188 0.65625 -3.296875 L 0.65625 -6.390625 C 0.65625 -7.054688 0.800781 -7.648438 1.09375 -8.171875 C 1.394531 -8.691406 1.816406 -9.09375 2.359375 -9.375 C 2.910156 -9.65625 3.539062 -9.796875 4.25 -9.796875 C 4.945312 -9.796875 5.5625 -9.65625 6.09375 -9.375 C 6.632812 -9.09375 7.054688 -8.710938 7.359375 -8.234375 C 7.660156 -7.765625 7.8125 -7.242188 7.8125 -6.671875 L 7.8125 -6.640625 C 7.8125 -6.484375 7.734375 -6.40625 7.578125 -6.40625 L 6.09375 -6.40625 C 6.019531 -6.40625 5.960938 -6.414062 5.921875 -6.4375 C 5.878906 -6.457031 5.859375 -6.484375 5.859375 -6.515625 L 5.859375 -6.609375 C 5.859375 -7.035156 5.710938 -7.390625 5.421875 -7.671875 C 5.128906 -7.960938 4.738281 -8.109375 4.25 -8.109375 C 3.75 -8.109375 3.347656 -7.953125 3.046875 -7.640625 C 2.742188 -7.335938 2.59375 -6.9375 2.59375 -6.4375 L 2.59375 -3.234375 C 2.59375 -2.734375 2.753906 -2.328125 3.078125 -2.015625 C 3.398438 -1.710938 3.8125 -1.5625 4.3125 -1.5625 C 4.789062 -1.5625 5.171875 -1.6875 5.453125 -1.9375 C 5.742188 -2.195312 5.890625 -2.550781 5.890625 -3 L 5.890625 -3.609375 C 5.890625 -3.660156 5.863281 -3.6875 5.8125 -3.6875 L 4.34375 -3.6875 C 4.1875 -3.6875 4.109375 -3.765625 4.109375 -3.921875 L 4.109375 -5.0625 C 4.109375 -5.21875 4.1875 -5.296875 4.34375 -5.296875 L 7.578125 -5.296875 C 7.734375 -5.296875 7.8125 -5.21875 7.8125 -5.0625 L 7.8125 -3.3125 C 7.8125 -2.601562 7.660156 -1.988281 7.359375 -1.46875 C 7.066406 -0.957031 6.648438 -0.566406 6.109375 -0.296875 C 5.578125 -0.0234375 4.957031 0.109375 4.25 0.109375 Z M 4.25 0.109375 "/></g></g></g></svg>