<svg xmlns="http://www.w3.org/2000/svg" xmlns:xlink="http://www.w3.org/1999/xlink" width="200" zoomAndPan="magnify" viewBox="0 0 150 149.999998" height="200" preserveAspectRatio="xMidYMid meet" version="1.0"><defs><clipPath id="1a5571ec88"><path d="M 14 50 L 150 50 L 150 114.09375 L 14 114.09375 Z M 14 50 " clip-rule="nonzero"/></clipPath><clipPath id="7dd062f7ab"><path d="M 31 36.09375 L 58 36.09375 L 58 57 L 31 57 Z M 31 36.09375 " clip-rule="nonzero"/></clipPath></defs><g clip-path="url(#1a5571ec88)"><path fill="#292b2e" d="M 117.316406 100.308594 C 117.90625 98.179688 117.605469 96.273438 116.359375 94.621094 C 115.128906 92.964844 113.441406 92.132812 111.316406 92.132812 L 94.84375 92.132812 L 94.097656 92.160156 L 96.324219 83.863281 L 97.125 83.835938 L 111.976562 83.835938 C 113.011719 83.835938 114.09375 83.613281 115.183594 83.171875 C 116.253906 82.703125 117.28125 82.117188 118.230469 81.367188 C 119.191406 80.613281 120.03125 79.753906 120.757812 78.769531 C 121.484375 77.789062 122.007812 76.761719 122.304688 75.667969 L 124.5625 67.332031 C 124.785156 66.3125 124.785156 65.34375 124.597656 64.351562 C 124.382812 63.371094 124.011719 62.484375 123.472656 61.71875 C 122.929688 60.949219 122.222656 60.332031 121.390625 59.875 C 120.554688 59.398438 119.59375 59.15625 118.558594 59.15625 L 89.59375 59.15625 C 88.289062 59.15625 87.171875 59.457031 86.023438 60.117188 L 83.964844 61.316406 C 82.265625 62.296875 81.148438 63.761719 80.644531 65.667969 L 75.21875 85.964844 L 55.707031 85.964844 C 54.402344 85.964844 53.285156 86.265625 52.136719 86.929688 L 50.078125 88.125 C 48.378906 89.105469 47.261719 90.574219 46.757812 92.480469 L 41.324219 112.777344 L 14.597656 112.777344 L 21.757812 85.976562 L 41.269531 85.976562 C 42.574219 85.976562 43.699219 85.675781 44.839844 85.011719 L 46.898438 83.816406 C 48.59375 82.835938 49.703125 81.386719 50.21875 79.480469 L 55.640625 59.175781 L 75.152344 59.175781 C 76.457031 59.175781 77.585938 58.875 78.714844 58.210938 L 80.792969 57.015625 C 82.492188 56.035156 83.609375 54.578125 84.113281 52.679688 L 84.570312 50.988281 L 137.089844 50.988281 C 141.40625 50.988281 144.78125 52.671875 147.222656 56.007812 C 149.65625 59.351562 150.308594 63.117188 149.171875 67.332031 L 147.707031 73.136719 C 145.910156 79.554688 141.695312 84.378906 135.011719 87.5625 C 137.601562 88.992188 139.53125 91.070312 140.808594 93.824219 C 142.070312 96.554688 142.246094 99.589844 141.304688 102.871094 L 138.378906 114.121094 L 113.625 114.121094 L 117.328125 100.339844 Z M 82.378906 59.15625 L 82.371094 59.15625 Z M 82.378906 59.15625 " fill-opacity="1" fill-rule="evenodd"/></g><path fill="#2fbdf5" d="M 73.558594 92.160156 L 94.105469 92.160156 L 88.597656 112.757812 L 68.050781 112.757812 Z M 73.558594 92.160156 " fill-opacity="1" fill-rule="evenodd"/><g clip-path="url(#7dd062f7ab)"><path fill="#2fbdf5" d="M 37.304688 36.09375 L 57.851562 36.09375 L 52.351562 56.6875 L 31.804688 56.6875 Z M 37.304688 36.09375 " fill-opacity="1" fill-rule="evenodd"/></g><path fill="#2fbdf5" d="M 5.796875 62.128906 L 26.34375 62.128906 L 20.832031 82.722656 L 0.289062 82.722656 Z M 5.796875 62.128906 " fill-opacity="1" fill-rule="evenodd"/></svg>