<svg xmlns="http://www.w3.org/2000/svg" xmlns:xlink="http://www.w3.org/1999/xlink" width="40" zoomAndPan="magnify" viewBox="0 0 30 30.000001" height="40" preserveAspectRatio="xMidYMid meet" version="1.0"><defs><clipPath id="74fc0ee9df"><path d="M 0.484375 0 L 29.515625 0 L 29.515625 29.03125 L 0.484375 29.03125 Z M 0.484375 0 " clip-rule="nonzero"/></clipPath></defs><g clip-path="url(#74fc0ee9df)"><path fill="#ffffff" d="M 0.484375 0 L 29.515625 0 L 29.515625 29.03125 L 0.484375 29.03125 Z M 0.484375 0 " fill-opacity="1" fill-rule="nonzero"/><path fill="#ffffff" d="M 0.484375 0 L 29.515625 0 L 29.515625 29.03125 L 0.484375 29.03125 Z M 0.484375 0 " fill-opacity="1" fill-rule="nonzero"/><path fill="#1877f2" d="M 15.007812 0.0078125 C 6.984375 0.0078125 0.484375 6.53125 0.484375 14.585938 C 0.484375 21.820312 5.738281 27.828125 12.617188 28.964844 L 12.617188 19.078125 L 8.921875 19.078125 L 8.921875 14.75 L 12.617188 14.75 L 12.617188 11.605469 C 12.617188 8.199219 15.371094 5.886719 18.765625 5.886719 C 20.273438 5.886719 21.21875 6.117188 21.21875 6.117188 L 21.21875 9.75 L 18.765625 9.75 C 17.746094 9.75 16.917969 10.585938 16.917969 11.605469 L 16.917969 14.75 L 20.878906 14.75 L 20.324219 19.078125 L 16.917969 19.078125 L 16.917969 29.027344 C 24.023438 28.078125 29.503906 21.96875 29.503906 14.585938 C 29.515625 6.53125 23.015625 0.0078125 15.007812 0.0078125 Z M 15.007812 0.0078125 " fill-opacity="1" fill-rule="nonzero"/></g></svg>