<svg xmlns="http://www.w3.org/2000/svg" xmlns:xlink="http://www.w3.org/1999/xlink" width="40" zoomAndPan="magnify" viewBox="0 0 30 30.000001" height="40" preserveAspectRatio="xMidYMid meet" version="1.0"><defs><clipPath id="906b1b357c"><path d="M 0.484375 0 L 29.515625 0 L 29.515625 29.03125 L 0.484375 29.03125 Z M 0.484375 0 " clip-rule="nonzero"/></clipPath><clipPath id="d435c1aa0c"><path d="M 0.484375 3 L 29.515625 3 L 29.515625 26.378906 L 0.484375 26.378906 Z M 0.484375 3 " clip-rule="nonzero"/></clipPath></defs><g clip-path="url(#906b1b357c)"><path fill="#ffffff" d="M 0.484375 0 L 29.515625 0 L 29.515625 101.613281 L 0.484375 101.613281 Z M 0.484375 0 " fill-opacity="1" fill-rule="nonzero"/><path fill="#ffffff" d="M 0.484375 0 L 29.515625 0 L 29.515625 29.03125 L 0.484375 29.03125 Z M 0.484375 0 " fill-opacity="1" fill-rule="nonzero"/><path fill="#ffffff" d="M 0.484375 0 L 29.515625 0 L 29.515625 29.03125 L 0.484375 29.03125 Z M 0.484375 0 " fill-opacity="1" fill-rule="nonzero"/></g><g clip-path="url(#d435c1aa0c)"><path fill="#1d9bf0" d="M 26.515625 8.863281 C 26.53125 9.117188 26.53125 9.371094 26.53125 9.625 C 26.53125 17.40625 20.554688 26.378906 9.628906 26.378906 L 9.628906 26.375 C 6.398438 26.378906 3.238281 25.460938 0.523438 23.734375 C 0.992188 23.789062 1.460938 23.816406 1.9375 23.820312 C 4.609375 23.820312 7.210938 22.933594 9.3125 21.292969 C 6.773438 21.246094 4.542969 19.605469 3.765625 17.203125 C 4.65625 17.375 5.570312 17.339844 6.445312 17.101562 C 3.675781 16.546875 1.679688 14.136719 1.679688 11.332031 C 1.679688 11.304688 1.679688 11.28125 1.679688 11.257812 C 2.503906 11.714844 3.429688 11.964844 4.375 11.996094 C 1.765625 10.265625 0.960938 6.824219 2.539062 4.132812 C 5.554688 7.8125 10.003906 10.046875 14.78125 10.285156 C 14.300781 8.238281 14.957031 6.097656 16.5 4.660156 C 18.894531 2.429688 22.65625 2.542969 24.90625 4.914062 C 26.234375 4.65625 27.511719 4.171875 28.679688 3.484375 C 28.234375 4.847656 27.308594 6.007812 26.066406 6.742188 C 27.246094 6.605469 28.394531 6.292969 29.480469 5.816406 C 28.679688 7 27.675781 8.03125 26.515625 8.863281 Z M 26.515625 8.863281 " fill-opacity="1" fill-rule="nonzero"/></g></svg>