<svg xmlns="http://www.w3.org/2000/svg" xmlns:xlink="http://www.w3.org/1999/xlink" width="40" zoomAndPan="magnify" viewBox="0 0 30 30.000001" height="40" preserveAspectRatio="xMidYMid meet" version="1.0"><defs><clipPath id="8ff55e1cd5"><path d="M 0.484375 0 L 29.515625 0 L 29.515625 29.03125 L 0.484375 29.03125 Z M 0.484375 0 " clip-rule="nonzero"/></clipPath></defs><g clip-path="url(#8ff55e1cd5)"><path fill="#ffffff" d="M 0.484375 0 L 29.515625 0 L 29.515625 29.03125 L 0.484375 29.03125 Z M 0.484375 0 " fill-opacity="1" fill-rule="nonzero"/><path fill="#ffffff" d="M 0.484375 0 L 29.515625 0 L 29.515625 29.03125 L 0.484375 29.03125 Z M 0.484375 0 " fill-opacity="1" fill-rule="nonzero"/><path fill="#000000" d="M 26.875 0 L 3.125 0 C 1.664062 0 0.484375 1.179688 0.484375 2.640625 L 0.484375 26.394531 C 0.484375 27.851562 1.664062 29.03125 3.125 29.03125 L 26.875 29.03125 C 28.335938 29.03125 29.515625 27.851562 29.515625 26.394531 L 29.515625 2.640625 C 29.515625 1.179688 28.332031 0 26.875 0 Z M 25.148438 12.503906 C 24.976562 12.519531 24.800781 12.527344 24.628906 12.527344 C 22.65625 12.527344 20.921875 11.515625 19.910156 9.980469 C 19.910156 14.003906 19.910156 18.582031 19.910156 18.660156 C 19.910156 22.203125 17.039062 25.074219 13.496094 25.074219 C 9.953125 25.074219 7.082031 22.199219 7.082031 18.660156 C 7.082031 15.117188 9.953125 12.242188 13.496094 12.242188 C 13.632812 12.242188 13.761719 12.253906 13.894531 12.261719 L 13.894531 15.425781 C 13.761719 15.410156 13.632812 15.386719 13.496094 15.386719 C 11.6875 15.386719 10.222656 16.851562 10.222656 18.660156 C 10.222656 20.46875 11.6875 21.933594 13.496094 21.933594 C 15.304688 21.933594 16.902344 20.507812 16.902344 18.699219 C 16.902344 18.628906 16.933594 3.960938 16.933594 3.960938 L 19.957031 3.960938 C 20.238281 6.660156 22.421875 8.792969 25.148438 8.988281 Z M 25.148438 12.503906 " fill-opacity="1" fill-rule="nonzero"/></g></svg>